<?xml version="1.0" encoding="UTF-8" standalone="no"?>
<svg
   width="1024"
   height="1024"
   viewBox="0 0 270.933 270.933"
   version="1.1"
   id="svg4"
   sodipodi:docname="kiwi-left.svg"
   inkscape:version="1.3 (0e150ed, 2023-07-21)"
   xmlns:inkscape="http://www.inkscape.org/namespaces/inkscape"
   xmlns:sodipodi="http://sodipodi.sourceforge.net/DTD/sodipodi-0.dtd"
   xmlns:xlink="http://www.w3.org/1999/xlink"
   xmlns="http://www.w3.org/2000/svg"
   xmlns:svg="http://www.w3.org/2000/svg">
  <sodipodi:namedview
     id="namedview4"
     pagecolor="#ffffff"
     bordercolor="#000000"
     borderopacity="0.25"
     inkscape:showpageshadow="2"
     inkscape:pageopacity="0.0"
     inkscape:pagecheckerboard="0"
     inkscape:deskcolor="#d1d1d1"
     inkscape:zoom="0.23046875"
     inkscape:cx="509.83051"
     inkscape:cy="509.83051"
     inkscape:window-width="1672"
     inkscape:window-height="840"
     inkscape:window-x="0"
     inkscape:window-y="39"
     inkscape:window-maximized="0"
     inkscape:current-layer="svg4" />
  <defs
     id="defs2">
    <radialGradient
       xlink:href="#a"
       id="b"
       cx="100.187"
       cy="166.054"
       fx="100.187"
       fy="166.054"
       r="20.452"
       gradientTransform="matrix(-5.5812853,3.7668229,3.9583339,5.8982489,20.841447,-1253.6357)"
       gradientUnits="userSpaceOnUse" />
    <linearGradient
       id="a">
      <stop
         style="stop-color:#7ddf64;stop-opacity:1"
         offset=".927"
         id="stop1" />
      <stop
         style="stop-color:#37bf32;stop-opacity:1"
         offset="1"
         id="stop2" />
    </linearGradient>
  </defs>
  <path
     style="fill:#c78f6e;fill-opacity:1;stroke-width:5.16844"
     d="M 242.32691,45.89863 A 140.6025,276.26804 57.968038 0 0 255.98978,29.151333 201.14244,158.2816 57.308277 0 1 207.74855,239.48221 201.14244,158.2816 57.308277 0 1 0.84955844,197.03149 140.6025,276.26804 57.968038 0 0 16.945949,192.25235 a 180.29268,141.87447 57.30828 0 0 8.610091,7.84277 180.29268,141.87447 57.30828 0 0 16.365839,12.18457 180.29268,141.87447 57.30828 0 0 17.166706,10.2578 180.29268,141.87447 57.30828 0 0 17.703949,8.16903 180.29268,141.87447 57.30828 0 0 18.015861,5.98211 180.29268,141.87447 57.30828 0 0 18.078875,3.71419 180.29268,141.87447 57.30828 0 0 17.90427,1.38041 180.29268,141.87447 57.30828 0 0 17.44957,-0.9628 180.29268,141.87447 57.30828 0 0 16.78968,-3.28639 180.29268,141.87447 57.30828 0 0 15.88409,-5.56305 180.29268,141.87447 57.30828 0 0 14.7509,-7.78097 180.29268,141.87447 57.30828 0 0 13.71229,-10.19528 180.29268,141.87447 57.30828 0 0 12.1155,-12.25596 180.29268,141.87447 57.30828 0 0 10.33947,-14.13517 180.29268,141.87447 57.30828 0 0 8.40599,-15.81729 180.29268,141.87447 57.30828 0 0 6.36719,-17.24147 180.29268,141.87447 57.30828 0 0 4.23496,-18.4473 180.29268,141.87447 57.30828 0 0 2.03008,-19.37175 180.29268,141.87447 57.30828 0 0 -0.19214,-20.026857 180.29268,141.87447 57.30828 0 0 -2.42338,-20.386655 180.29268,141.87447 57.30828 0 0 -4.61068,-20.441377 180.29268,141.87447 57.30828 0 0 -3.31796,-9.968621 z"
     id="path2" />
  <path
     style="fill:url(#b);fill-opacity:1;stroke-width:5.16844"
     d="m 242.32691,45.89863 a 180.29268,141.87447 57.30828 0 1 3.31796,9.968621 180.29268,141.87447 57.30828 0 1 4.61068,20.441377 180.29268,141.87447 57.30828 0 1 2.42357,20.390315 180.29268,141.87447 57.30828 0 1 0.19195,20.023197 180.29268,141.87447 57.30828 0 1 -2.02989,19.37541 180.29268,141.87447 57.30828 0 1 -4.23146,18.44747 180.29268,141.87447 57.30828 0 1 -6.36719,17.24146 180.29268,141.87447 57.30828 0 1 -8.413,15.81696 180.29268,141.87447 57.30828 0 1 -10.33946,14.13518 180.29268,141.87447 57.30828 0 1 -12.11219,12.25246 180.29268,141.87447 57.30828 0 1 -13.7119,10.2026 180.29268,141.87447 57.30828 0 1 -14.7511,7.77731 180.29268,141.87447 57.30828 0 1 -15.88409,5.56305 180.29268,141.87447 57.30828 0 1 -16.78968,3.28639 180.29268,141.87447 57.30828 0 1 -17.44957,0.9628 180.29268,141.87447 57.30828 0 1 -17.90446,-1.38407 180.29268,141.87447 57.30828 0 1 -18.078877,-3.71419 180.29268,141.87447 57.30828 0 1 -18.015669,-5.97845 180.29268,141.87447 57.30828 0 1 -17.70414,-8.17269 A 180.29268,141.87447 57.30828 0 1 41.925192,212.2762 180.29268,141.87447 57.30828 0 1 25.559543,200.09528 180.29268,141.87447 57.30828 0 1 16.945949,192.25235 140.6025,276.26804 57.968038 0 0 132.94321,138.34426 140.6025,276.26804 57.968038 0 0 242.3271,45.90229 Z"
     id="path3" />
  <path
     style="font-weight:600;font-size:25.4px;font-family:Montserrat;-inkscape-font-specification:'Montserrat Semi-Bold';fill:#51c733;fill-opacity:1;stroke-width:2.93789"
     d="m 154.3604,159.35903 c -4.56406,3.21497 -8.31437,26.37997 1.06441,40.7609 3.42663,5.23483 7.98534,8.66059 13.54689,10.01202 q 8.72367,2.13442 16.56167,-2.96846 7.8341,-5.11037 9.34272,-13.54648 1.89436,-8.34508 -3.14487,-16.07579 C 179.94316,159.4662 157.36026,157.24291 154.3604,159.35903 m -44.92641,12.61065 c -5.70288,-1.58074 -24.91399,9.52959 -28.05424,25.45414 -1.128987,5.80695 -0.1339,11.3955 3.083199,16.50007 q 5.040726,8.0265 14.53824,10.98931 9.497511,2.96282 16.606521,-0.97662 7.32711,-3.57877 9.01453,-12.13797 c 3.94974,-20.02321 -11.43634,-38.79569 -15.18825,-39.82893 m 72.65915,-47.00991 c 1.02776,-5.80438 19.38157,-18.26908 35.16439,-14.21674 5.74695,1.48788 10.37973,4.79297 13.62428,9.88786 q 5.08786,7.9922 3.67893,17.79841 -1.41944,9.80572 -8.04867,14.49775 -6.40469,5.04206 -14.88967,2.86038 c -19.83917,-5.0925 -30.21374,-27.01159 -29.52926,-30.82766"
     id="path4" />
</svg>
