<svg width="1024" height="1024" viewBox="0 0 270.933 270.933" xmlns:xlink="http://www.w3.org/1999/xlink" xmlns="http://www.w3.org/2000/svg"><defs><radialGradient xlink:href="#a" id="b" cx="100.187" cy="166.054" fx="100.187" fy="166.054" r="20.452" gradientTransform="matrix(1.65331 1.10317 -1.04419 1.56491 206.367 -277.185)" gradientUnits="userSpaceOnUse"/><linearGradient id="a"><stop style="stop-color:#7ddf64;stop-opacity:1" offset=".927"/><stop style="stop-color:#37bf32;stop-opacity:1" offset="1"/></linearGradient></defs><path style="fill:#c78f6e;fill-opacity:1;stroke-width:1.4451" d="M162.462 75.93a81.546 37.239 32.003 0 1-4.16-4.762 46.721 53.272 32.003 0 0 16.953 58.228 46.721 53.272 32.003 0 0 58.561-8.98 81.546 37.239 32.003 0 1-4.677-1.515 41.878 47.75 32.003 0 1-2.346 2.038 41.878 47.75 32.003 0 1-4.5 3.128 41.878 47.75 32.003 0 1-4.758 2.59 41.878 47.75 32.003 0 1-4.943 2.011 41.878 47.75 32.003 0 1-5.065 1.408 41.878 47.75 32.003 0 1-5.117.786 41.878 47.75 32.003 0 1-5.102.149 41.878 47.75 32.003 0 1-5.007-.487 41.878 47.75 32.003 0 1-4.853-1.115 41.878 47.75 32.003 0 1-4.628-1.727 41.878 47.75 32.003 0 1-4.337-2.32 41.878 47.75 32.003 0 1-4.076-2.968 41.878 47.75 32.003 0 1-3.65-3.512 41.878 47.75 32.003 0 1-3.17-4.004 41.878 47.75 32.003 0 1-2.642-4.44 41.878 47.75 32.003 0 1-2.08-4.804 41.878 47.75 32.003 0 1-1.488-5.107 41.878 47.75 32.003 0 1-.871-5.332 41.878 47.75 32.003 0 1-.245-5.483 41.878 47.75 32.003 0 1 .388-5.553 41.878 47.75 32.003 0 1 1.013-5.54 41.878 47.75 32.003 0 1 .8-2.688z" transform="matrix(3.50367 -.16368 -.1916 3.65985 -524.36 -205.402)"/><path style="fill:url(#b);fill-opacity:1;stroke-width:1.4451" d="M162.462 75.93a41.878 47.75 32.003 0 0-.8 2.688 41.878 47.75 32.003 0 0-1.013 5.54 41.878 47.75 32.003 0 0-.388 5.554 41.878 47.75 32.003 0 0 .245 5.482 41.878 47.75 32.003 0 0 .871 5.333 41.878 47.75 32.003 0 0 1.487 5.107 41.878 47.75 32.003 0 0 2.08 4.804 41.878 47.75 32.003 0 0 2.644 4.44 41.878 47.75 32.003 0 0 3.17 4.004 41.878 47.75 32.003 0 0 3.649 3.511 41.878 47.75 32.003 0 0 4.076 2.97 41.878 47.75 32.003 0 0 4.337 2.319 41.878 47.75 32.003 0 0 4.628 1.727 41.878 47.75 32.003 0 0 4.853 1.115 41.878 47.75 32.003 0 0 5.007.487 41.878 47.75 32.003 0 0 5.102-.15 41.878 47.75 32.003 0 0 5.117-.786 41.878 47.75 32.003 0 0 5.065-1.407 41.878 47.75 32.003 0 0 4.943-2.012 41.878 47.75 32.003 0 0 4.757-2.59 41.878 47.75 32.003 0 0 4.5-3.127 41.878 47.75 32.003 0 0 2.347-2.038 81.546 37.239 32.003 0 1-33.996-16.25 81.546 37.239 32.003 0 1-32.681-26.72z" transform="matrix(3.50367 -.16368 -.1916 3.65985 -524.36 -205.402)"/><path style="font-weight:600;font-size:25.4px;font-family:Montserrat;-inkscape-font-specification:&quot;Montserrat Semi-Bold&quot;;fill:#51c733;fill-opacity:1;stroke-width:.821436" d="M189.33 108.133c1.354.939 2.774 7.332.306 11.151-.902 1.39-2.155 2.27-3.726 2.569q-2.464.473-4.783-1.025-2.318-1.5-2.876-3.83-.667-2.31.659-4.363c3.102-4.8 9.53-5.12 10.42-4.502m13.043 4.029c1.608-.36 7.271 2.929 8.408 7.331.41 1.605.209 3.123-.635 4.48q-1.322 2.134-3.995 2.824t-4.766-.48q-2.15-1.074-2.761-3.44c-1.43-5.535 2.691-10.48 3.749-10.715M180.88 98.356c-.381-1.603-5.819-5.252-10.274-4.344-1.622.334-2.898 1.18-3.75 2.534q-1.336 2.124-.786 4.828.553 2.704 2.52 4.074 1.908 1.463 4.303.974c5.6-1.141 8.24-7.012 7.987-8.066" transform="matrix(3.50367 -.16368 -.1916 3.65985 -524.36 -205.402)"/></svg>