<svg width="73.687" height="65.377" viewBox="0 0 19.496 17.298" xml:space="preserve" xmlns:xlink="http://www.w3.org/1999/xlink" xmlns="http://www.w3.org/2000/svg"><defs><radialGradient xlink:href="#a" id="b" cx="129.985" cy="86.687" fx="129.985" fy="86.687" r="114.938" gradientTransform="matrix(.55102 0 0 .14682 2.211 251.993)" gradientUnits="userSpaceOnUse"/><linearGradient id="a"><stop style="stop-color:#7ddf64;stop-opacity:1" offset=".962"/><stop style="stop-color:#37bf32;stop-opacity:1" offset="1"/></linearGradient></defs><path style="fill:#c78f6e;fill-opacity:1;stroke-width:.112871" d="M45.726 267.663a44.743 10.76 0 0 0-4.902.467l-4.761 8.027-4.054-6.72a44.743 10.76 0 0 0-5.736 1.275v12.003h3.755v-10.158l5.066 8.329h1.804l5.093-8.553.022 10.382h3.756z" transform="translate(-26.273 -265.417)"/><path style="fill:url(#b);fill-opacity:1;stroke-width:.168174" d="M26.273 265.417v10.441a63.333 16.875 0 0 0 3.755 1.012v-4.313l3.078 5.06a63.333 16.875 0 0 0 5.113 1.05l3.772-6.334.015 6.944a63.333 16.875 0 0 0 3.755.549l-.041-14.409h-3.287l-6.37 10.74-6.479-10.74z" transform="translate(-26.273 -265.417)"/><path style="font-weight:600;font-size:25.4px;font-family:Montserrat;-inkscape-font-specification:&quot;Montserrat Semi-Bold&quot;;fill:#51c733;fill-opacity:1;stroke-width:.254843" d="M45.1 269.206q-.217.006-.44.074-.722.18-1.178.905-.457.725-.302 1.488c.098.486.375.873.81 1.147.506.319 1.152.42 1.752.397l-.011-3.894a1.5 1.5 0 0 0-.632-.117m-7.254 3.947-1.782 3.004-1.285-2.13c-.393 1.291.353 2.997.798 3.195.307.138 2.248-.328 2.92-1.969a1.58 1.58 0 0 0-.05-1.368 1.8 1.8 0 0 0-.601-.732m-10.368-3.748a3.8 3.8 0 0 0-1.204.22v3.945q.218.046.447.04c.496-.011.925-.217 1.27-.597.95-1.043.84-3.072.473-3.428-.098-.095-.483-.19-.986-.18" transform="translate(-26.273 -265.417)"/></svg>