<svg width="220.127" height="73.502" viewBox="0 0 58.242 19.447" xml:space="preserve" xmlns:xlink="http://www.w3.org/1999/xlink" xmlns="http://www.w3.org/2000/svg"><defs><radialGradient xlink:href="#a" id="b" cx="129.985" cy="86.687" fx="129.985" fy="86.687" r="114.938" gradientTransform="matrix(.55102 0 0 .14682 282.557 24.654)" gradientUnits="userSpaceOnUse"/><linearGradient id="a"><stop style="stop-color:#7ddf64;stop-opacity:1" offset=".962"/><stop style="stop-color:#37bf32;stop-opacity:1" offset="1"/></linearGradient></defs><path style="fill:#c78f6e;fill-opacity:1;stroke-width:.112871" d="M333.192 39.91a44.743 10.76 0 0 0-2.406.106c.32.136.679.213 1.086.213.516 0 .954-.11 1.32-.32m-7.12.414a44.743 10.76 0 0 0-4.903.467l-4.76 8.028-4.055-6.72a44.743 10.76 0 0 0-5.736 1.275v12.002h3.756V45.218l5.066 8.33h1.803l5.094-8.554.022 10.382h3.756zm3.872 1.758v13.294h3.856V42.082Zm5.684 0 4.794 13.294h3.706l3.08-8.26 2.975 8.26h3.73l4.819-13.294h-3.41l-3.229 9.006-3.17-9.006h-3.263l-3.268 9.006-3.132-9.006zm24.908 0v13.294h3.854V42.082Z" transform="translate(-306.618 -35.929)"/><path style="fill:url(#b);fill-opacity:1;stroke-width:.168174" d="M331.872 35.929q-1.062 0-1.73.618a2 2 0 0 0-.667 1.531q0 .914.667 1.532.668.618 1.73.619 1.087 0 1.73-.619.666-.642.667-1.606 0-.914-.667-1.482-.668-.593-1.73-.593m30.591 0q-1.062 0-1.73.618a2 2 0 0 0-.667 1.531q0 .914.667 1.532.668.618 1.73.619 1.088 0 1.73-.619.667-.642.667-1.606 0-.914-.667-1.482-.667-.593-1.73-.593m-55.845 2.15v10.44a63.333 16.875 0 0 0 3.756 1.012v-4.313l3.078 5.06a63.333 16.875 0 0 0 5.113 1.05l3.772-6.334.015 6.944a63.333 16.875 0 0 0 3.755.55l-.042-14.41h-3.286l-6.37 10.74-6.48-10.74zm23.327 4.003v10.866a63.333 16.875 0 0 0 3.855.386V42.082Zm5.683 0 4.229 11.726a63.333 16.875 0 0 0 4.769.233l2.582-6.925 2.546 7.07a63.333 16.875 0 0 0 4.427.072 63.333 16.875 0 0 0 .139-.002l4.412-12.174h-3.41l-3.229 9.006-3.17-9.006h-3.263l-3.268 9.006-3.132-9.006zm24.908 0v12.073a63.333 16.875 0 0 0 3.854-.146V42.082Z" transform="translate(-306.618 -35.929)"/><path style="font-weight:600;font-size:25.4px;font-family:Montserrat;-inkscape-font-specification:&quot;Montserrat Semi-Bold&quot;;fill:#51c733;fill-opacity:1;stroke-width:.254843" d="M363.228 45.722a.4.4 0 0 0-.107.015c-.323.093-1.502 1.704-.952 3.39q.235.72.922 1.012.594.284 1.3.109v-4.093c-.458-.28-.903-.439-1.163-.433m-12.161 2.521a1.7 1.7 0 0 0-.44.073q-.721.18-1.178.906-.457.724-.302 1.487c.099.486.375.873.81 1.147 1.193.752 3.171.29 3.458-.133.15-.22.105-1.502-.653-2.5l-.669 1.865-1.002-2.845zm-10.495-2.389a2 2 0 0 0-.369.257c-1.061.93-1.182 2.957-.858 3.353.166.201 1.367.517 2.52.108zm-6.919.926c-.587-.007-2.169.46-2.819 1.87a1.58 1.58 0 0 0-.011 1.368q.274.69 1.051 1.05.778.359 1.514.106.225-.078.412-.204v-4.174a.6.6 0 0 0-.147-.016m-8.208-4.913a1.7 1.7 0 0 0-.44.074q-.72.181-1.177.905-.458.725-.302 1.488c.098.486.375.873.81 1.147.505.319 1.152.42 1.751.397l-.01-3.894a1.5 1.5 0 0 0-.632-.117m-7.255 3.947-1.782 3.005-1.284-2.13c-.393 1.29.353 2.996.798 3.195.306.137 2.248-.328 2.919-1.97a1.58 1.58 0 0 0-.049-1.368 1.8 1.8 0 0 0-.601-.732m-10.369-3.748a3.8 3.8 0 0 0-1.204.22v3.945q.217.047.448.041c.496-.012.925-.217 1.27-.597.95-1.044.84-3.072.473-3.429-.098-.095-.483-.19-.987-.18" transform="translate(-306.618 -35.929)"/></svg>