<svg width="359.418" height="114.373" viewBox="0 0 95.096 30.261" xml:space="preserve" xmlns:xlink="http://www.w3.org/1999/xlink" xmlns="http://www.w3.org/2000/svg"><defs><linearGradient id="a"><stop style="stop-color:#7ddf64;stop-opacity:1" offset=".962"/><stop style="stop-color:#37bf32;stop-opacity:1" offset="1"/></linearGradient><linearGradient xlink:href="#a" id="d" x1="191.108" y1="215.464" x2="254.441" y2="215.464" gradientUnits="userSpaceOnUse" gradientTransform="matrix(.26646 0 0 1.87648 -266.388 -181.539)"/><linearGradient xlink:href="#a" id="c" gradientUnits="userSpaceOnUse" gradientTransform="matrix(.26646 0 0 1.87648 164.54 -181.539)" x1="191.108" y1="215.464" x2="254.441" y2="215.464"/><radialGradient xlink:href="#a" id="b" cx="129.985" cy="86.687" fx="129.985" fy="86.687" r="114.938" gradientTransform="matrix(.55102 0 0 .14682 119.484 202.736)" gradientUnits="userSpaceOnUse"/></defs><path style="fill:#c78f6e;fill-opacity:1;stroke-width:.112871" d="M143.105 209.769a69.127 24.334 0 0 0-1.485.516v29.745h95.096v-29.577a69.127 24.334 0 0 0-2.111-.684z" transform="translate(-141.62 -209.768)"/><path style="fill:url(#b);fill-opacity:1;stroke-width:.168174" d="M141.62 209.769v16.177a63.333 16.875 0 0 0 49.488 6.394 63.333 16.875 0 0 0 45.608-5.207V209.77z" transform="translate(-141.62 -209.768)"/><path style="opacity:1;fill:url(#c);fill-opacity:1;stroke-width:.264582" d="M215.464 191.108h16.876v45.608h-16.876z" transform="matrix(0 1 1 0 -141.62 -209.768)"/><path style="opacity:1;fill:url(#d);fill-opacity:1;stroke-width:.264582" d="M-209.769 191.108h-5.695v45.608h5.695z" transform="rotate(-90 -175.694 -34.074)"/><path style="font-weight:600;font-size:25.4px;font-family:Montserrat;-inkscape-font-specification:&quot;Montserrat Semi-Bold&quot;;fill:#51c733;fill-opacity:1;stroke-width:.254843" d="M200.156 223.804a.4.4 0 0 0-.107.014c-.323.094-1.503 1.705-.953 3.39q.235.722.922 1.013.67.32 1.485.055.814-.265 1.182-.952c.235-.436.269-.91.11-1.399-.41-1.257-2.033-2.134-2.64-2.121m23.563-4.199a.4.4 0 0 0-.107.014c-.323.093-1.502 1.704-.952 3.39q.235.72.922 1.012.67.321 1.484.056t1.183-.952c.235-.437.269-.911.11-1.4-.41-1.257-2.034-2.133-2.64-2.12m-35.291 6.719c-.537.007-1.095.118-1.543.4-.434.274-.711.661-.81 1.147q-.155.764.302 1.487t1.178.906q.714.215 1.356-.19c1.5-.946 1.621-2.94 1.432-3.217-.179-.265-1.019-.544-1.915-.533m24.566-2.471c-.537.007-1.095.118-1.543.4-.434.274-.711.66-.81 1.147q-.155.763.302 1.487t1.178.906q.714.215 1.356-.19c1.5-.946 1.621-2.939 1.432-3.217-.179-.264-1.019-.544-1.915-.533m-34.716-.116a1.74 1.74 0 0 0-1.147.456c-1.061.93-1.182 2.957-.858 3.353.213.26 2.158.711 3.492-.457q.57-.5.568-1.245.032-.744-.532-1.388t-1.34-.712a2 2 0 0 0-.183-.007m-7.697 1.124c-.587-.006-2.169.46-2.818 1.87a1.58 1.58 0 0 0-.012 1.369q.273.69 1.052 1.05.777.36 1.514.105c.469-.16.816-.485 1.031-.952.59-1.28-.125-3.182-.582-3.411a.5.5 0 0 0-.185-.031m-8.207-4.911q-.217.005-.44.073-.721.181-1.178.905-.457.725-.302 1.488c.099.486.375.873.81 1.147 1.193.752 3.171.29 3.458-.133.189-.278.068-2.271-1.432-3.217a1.6 1.6 0 0 0-.916-.264m54.249-3.784a1.7 1.7 0 0 0-.526.074q-.72.182-1.178.906t-.302 1.487c.099.486.376.873.81 1.147 1.193.752 3.172.29 3.458-.133.19-.278.068-2.271-1.432-3.217a1.6 1.6 0 0 0-.83-.264m-62.87 7.288a1.9 1.9 0 0 0-.647.133c-.461.181-.794.521-.988.997-.534 1.306.265 3.174.732 3.382.306.138 2.248-.328 2.919-1.97a1.58 1.58 0 0 0-.049-1.367q-.304-.68-1.096-1.003a2.15 2.15 0 0 0-.87-.172m81.157-1.996a1.9 1.9 0 0 0-.646.133c-.462.181-.794.521-.989.997-.534 1.306.265 3.173.732 3.382.279.125 1.911-.25 2.709-1.554v-2.07q-.32-.465-.935-.716a2.15 2.15 0 0 0-.87-.172m-90.047-1.309c-.745-.01-1.8.21-2.546 1.029a1.58 1.58 0 0 0-.423 1.302q.053.742.686 1.318t1.412.557c.496-.012.925-.217 1.27-.597.95-1.044.84-3.073.473-3.429-.09-.088-.426-.175-.872-.18" transform="translate(-141.62 -209.768)"/></svg>