<svg width="230.031" height="114.373" viewBox="0 0 60.862 30.261" xml:space="preserve" xmlns:xlink="http://www.w3.org/1999/xlink" xmlns="http://www.w3.org/2000/svg"><defs><radialGradient xlink:href="#a" id="b" cx="129.985" cy="86.687" fx="129.985" fy="86.687" r="114.938" gradientTransform="matrix(.55102 0 0 .14682 94.472 227.583)" gradientUnits="userSpaceOnUse"/><linearGradient id="a"><stop style="stop-color:#7ddf64;stop-opacity:1" offset=".962"/><stop style="stop-color:#37bf32;stop-opacity:1" offset="1"/></linearGradient></defs><path style="fill:#c78f6e;fill-opacity:1;stroke-width:.112871" d="M147.185 247.987a44.743 10.76 0 0 0-30.617 2.935v13.96h60.863v-14.06a44.743 10.76 0 0 0-30.246-2.835" transform="translate(-116.568 -234.62)"/><path style="fill:url(#b);fill-opacity:1;stroke-width:.168174" d="M116.568 234.62v16.159a63.333 16.875 0 0 0 49.528 6.407 63.333 16.875 0 0 0 11.335-.304v-22.261z" transform="translate(-116.568 -234.62)"/><path style="font-weight:600;font-size:25.4px;font-family:Montserrat;-inkscape-font-specification:&quot;Montserrat Semi-Bold&quot;;fill:#51c733;fill-opacity:1;stroke-width:.254843" d="M175.144 248.65a.4.4 0 0 0-.107.015c-.323.093-1.502 1.705-.953 3.39q.236.721.922 1.012.672.321 1.486.056.584-.19.939-.6v-2.426c-.641-.885-1.797-1.457-2.287-1.447m-12.162 2.52q-.216.007-.439.075-.722.18-1.178.905-.457.725-.302 1.487c.098.486.375.873.81 1.147 1.193.753 3.171.29 3.458-.132.189-.278.067-2.272-1.432-3.218a1.6 1.6 0 0 0-.917-.263m-9.716-2.588a1.74 1.74 0 0 0-1.147.457c-1.061.929-1.182 2.957-.858 3.352.213.26 2.158.712 3.492-.456q.57-.5.568-1.245.032-.743-.533-1.388-.564-.644-1.339-.713a2 2 0 0 0-.183-.007m-7.698 1.125c-.586-.006-2.168.46-2.818 1.87a1.58 1.58 0 0 0-.011 1.368q.273.692 1.051 1.05.778.36 1.514.106c.469-.161.817-.486 1.032-.952.59-1.281-.126-3.183-.583-3.412a.5.5 0 0 0-.185-.03m-8.121-4.913a1.7 1.7 0 0 0-.525.075q-.721.18-1.179.905-.457.725-.302 1.487c.099.487.376.874.81 1.148 1.193.752 3.17.29 3.458-.133.189-.28.068-2.272-1.432-3.218a1.6 1.6 0 0 0-.83-.264m-8.706 3.505a1.9 1.9 0 0 0-.647.133c-.462.181-.794.521-.989.997-.533 1.306.266 3.173.732 3.382.307.138 2.248-.328 2.92-1.97a1.58 1.58 0 0 0-.05-1.367q-.303-.68-1.096-1.003a2.15 2.15 0 0 0-.87-.172m-8.889-3.306c-.745-.009-1.8.21-2.545 1.03a1.58 1.58 0 0 0-.423 1.301q.052.743.686 1.319.633.576 1.412.556c.496-.012.924-.216 1.27-.597.95-1.043.84-3.072.472-3.428-.09-.088-.425-.175-.872-.18" transform="translate(-116.568 -234.62)"/></svg>